<svg width="720" height="520" viewBox="0 0 720 520" fill="none" xmlns="http://www.w3.org/2000/svg">
  <defs>
    <linearGradient id="heroBg" x1="90" y1="40" x2="620" y2="420" gradientUnits="userSpaceOnUse">
      <stop stop-color="#0F172A"/>
      <stop offset="1" stop-color="#1E3A8A"/>
    </linearGradient>
    <linearGradient id="heroAccent" x1="210" y1="130" x2="540" y2="388" gradientUnits="userSpaceOnUse">
      <stop stop-color="#FFFFFF"/>
      <stop offset="1" stop-color="#DBEAFE"/>
    </linearGradient>
    <linearGradient id="route" x1="176" y1="262" x2="516" y2="262" gradientUnits="userSpaceOnUse">
      <stop stop-color="#38BDF8"/>
      <stop offset="1" stop-color="#22C55E"/>
    </linearGradient>
  </defs>
  <rect width="720" height="520" rx="40" fill="url(#heroBg)"/>
  <circle cx="126" cy="110" r="62" fill="#38BDF8" opacity="0.16"/>
  <circle cx="598" cy="406" r="84" fill="#93C5FD" opacity="0.16"/>
  <rect x="152" y="94" width="416" height="320" rx="32" fill="url(#heroAccent)" fill-opacity="0.98"/>
  <rect x="184" y="130" width="152" height="18" rx="9" fill="#BFDBFE"/>
  <rect x="184" y="164" width="352" height="88" rx="24" fill="#FFFFFF" stroke="#BFDBFE" stroke-width="2"/>
  <rect x="208" y="188" width="106" height="12" rx="6" fill="#64748B"/>
  <rect x="208" y="212" width="160" height="18" rx="9" fill="#0F172A"/>
  <rect x="432" y="186" width="80" height="40" rx="20" fill="#DBEAFE"/>
  <path d="M206 306C246 276 278 262 320 262C368 262 394 292 430 292C462 292 488 276 516 246" stroke="url(#route)" stroke-width="12" stroke-linecap="round"/>
  <circle cx="206" cy="306" r="15" fill="#0EA5E9"/>
  <circle cx="516" cy="246" r="15" fill="#22C55E"/>
  <rect x="184" y="334" width="104" height="50" rx="20" fill="#0F172A"/>
  <rect x="202" y="352" width="66" height="12" rx="6" fill="#DBEAFE"/>
  <rect x="306" y="334" width="104" height="50" rx="20" fill="#FFFFFF" stroke="#BFDBFE" stroke-width="2"/>
  <rect x="324" y="352" width="66" height="12" rx="6" fill="#1D4ED8" opacity="0.8"/>
  <rect x="428" y="334" width="108" height="50" rx="20" fill="#FFFFFF" stroke="#BFDBFE" stroke-width="2"/>
  <path d="M462 359L476 372L502 346" stroke="#10B981" stroke-width="10" stroke-linecap="round" stroke-linejoin="round"/>
  <rect x="560" y="122" width="94" height="78" rx="22" fill="#FFFFFF" fill-opacity="0.12"/>
  <rect x="587" y="146" width="40" height="10" rx="5" fill="#DBEAFE"/>
  <rect x="581" y="258" width="84" height="72" rx="22" fill="#FFFFFF" fill-opacity="0.12"/>
  <rect x="604" y="282" width="38" height="10" rx="5" fill="#DBEAFE"/>
</svg>
