<svg width="720" height="420" viewBox="0 0 720 420" fill="none" xmlns="http://www.w3.org/2000/svg">
  <defs>
    <linearGradient id="historyBg" x1="76" y1="32" x2="626" y2="350" gradientUnits="userSpaceOnUse">
      <stop stop-color="#EFF6FF"/>
      <stop offset="1" stop-color="#F8FAFC"/>
    </linearGradient>
  </defs>
  <rect width="720" height="420" rx="36" fill="url(#historyBg)"/>
  <circle cx="130" cy="92" r="50" fill="#DBEAFE"/>
  <circle cx="584" cy="324" r="72" fill="#DBEAFE" opacity="0.7"/>
  <rect x="92" y="78" width="536" height="264" rx="30" fill="#FFFFFF" stroke="#BFDBFE" stroke-width="2"/>
  <rect x="126" y="114" width="132" height="12" rx="6" fill="#0F172A" opacity="0.88"/>
  <rect x="126" y="138" width="168" height="10" rx="5" fill="#93C5FD"/>
  <rect x="126" y="180" width="468" height="42" rx="16" fill="#EFF6FF" stroke="#BFDBFE" stroke-width="2"/>
  <rect x="148" y="196" width="84" height="10" rx="5" fill="#64748B"/>
  <rect x="284" y="196" width="76" height="10" rx="5" fill="#64748B"/>
  <rect x="398" y="192" width="88" height="18" rx="9" fill="#DBEAFE"/>
  <rect x="520" y="192" width="48" height="18" rx="9" fill="#DCFCE7"/>
  <rect x="126" y="238" width="468" height="42" rx="16" fill="#EFF6FF" stroke="#BFDBFE" stroke-width="2"/>
  <rect x="148" y="254" width="84" height="10" rx="5" fill="#64748B"/>
  <rect x="284" y="254" width="76" height="10" rx="5" fill="#64748B"/>
  <rect x="398" y="250" width="88" height="18" rx="9" fill="#DBEAFE"/>
  <rect x="520" y="250" width="48" height="18" rx="9" fill="#FEE2E2"/>
  <rect x="502" y="104" width="92" height="54" rx="20" fill="#0F172A"/>
  <path d="M548 121V132L556 138" stroke="#DBEAFE" stroke-width="7" stroke-linecap="round" stroke-linejoin="round"/>
  <circle cx="548" cy="129" r="18" stroke="#DBEAFE" stroke-width="5"/>
</svg>
