<svg width="640" height="420" viewBox="0 0 640 420" fill="none" xmlns="http://www.w3.org/2000/svg">
  <defs>
    <linearGradient id="bg" x1="80" y1="40" x2="560" y2="360" gradientUnits="userSpaceOnUse">
      <stop stop-color="#DBEAFE"/>
      <stop offset="1" stop-color="#F8FAFC"/>
    </linearGradient>
    <linearGradient id="card" x1="180" y1="100" x2="470" y2="340" gradientUnits="userSpaceOnUse">
      <stop stop-color="#FFFFFF"/>
      <stop offset="1" stop-color="#EFF6FF"/>
    </linearGradient>
    <linearGradient id="accent" x1="140" y1="220" x2="500" y2="220" gradientUnits="userSpaceOnUse">
      <stop stop-color="#38BDF8"/>
      <stop offset="1" stop-color="#2563EB"/>
    </linearGradient>
  </defs>
  <rect width="640" height="420" rx="36" fill="url(#bg)"/>
  <circle cx="115" cy="96" r="54" fill="#BFDBFE" opacity="0.6"/>
  <circle cx="527" cy="318" r="70" fill="#DBEAFE" opacity="0.7"/>
  <rect x="144" y="82" width="352" height="258" rx="28" fill="url(#card)" stroke="#93C5FD" stroke-width="2"/>
  <rect x="175" y="118" width="140" height="18" rx="9" fill="#DBEAFE"/>
  <rect x="175" y="154" width="292" height="78" rx="22" fill="#FFFFFF" stroke="#BFDBFE" stroke-width="2"/>
  <rect x="197" y="176" width="116" height="12" rx="6" fill="#94A3B8"/>
  <rect x="197" y="198" width="168" height="18" rx="9" fill="#0F172A" opacity="0.9"/>
  <rect x="384" y="176" width="61" height="34" rx="17" fill="#DBEAFE"/>
  <rect x="175" y="248" width="292" height="20" rx="10" fill="url(#accent)" opacity="0.9"/>
  <rect x="175" y="286" width="82" height="12" rx="6" fill="#94A3B8"/>
  <rect x="283" y="286" width="80" height="12" rx="6" fill="#94A3B8"/>
  <rect x="389" y="286" width="78" height="12" rx="6" fill="#94A3B8"/>
  <path d="M88 260C116 241 142 232 171 232C213 232 236 258 270 258C298 258 318 246 342 226" stroke="#2563EB" stroke-width="12" stroke-linecap="round"/>
  <circle cx="88" cy="260" r="14" fill="#1D4ED8"/>
  <circle cx="342" cy="226" r="14" fill="#38BDF8"/>
  <rect x="454" y="112" width="108" height="86" rx="20" fill="#0F172A"/>
  <rect x="478" y="136" width="59" height="10" rx="5" fill="#DBEAFE"/>
  <rect x="478" y="156" width="40" height="10" rx="5" fill="#93C5FD"/>
  <rect x="463" y="242" width="90" height="74" rx="20" fill="#FFFFFF" stroke="#BFDBFE" stroke-width="2"/>
  <path d="M489 276L507 292L529 262" stroke="#10B981" stroke-width="10" stroke-linecap="round" stroke-linejoin="round"/>
</svg>
