<svg width="720" height="420" viewBox="0 0 720 420" fill="none" xmlns="http://www.w3.org/2000/svg">
  <defs>
    <linearGradient id="transferBg" x1="74" y1="34" x2="618" y2="348" gradientUnits="userSpaceOnUse">
      <stop stop-color="#EFF6FF"/>
      <stop offset="1" stop-color="#F8FAFC"/>
    </linearGradient>
    <linearGradient id="transferAccent" x1="154" y1="206" x2="540" y2="206" gradientUnits="userSpaceOnUse">
      <stop stop-color="#38BDF8"/>
      <stop offset="1" stop-color="#2563EB"/>
    </linearGradient>
  </defs>
  <rect width="720" height="420" rx="36" fill="url(#transferBg)"/>
  <circle cx="118" cy="308" r="58" fill="#DBEAFE"/>
  <circle cx="580" cy="96" r="46" fill="#BFDBFE"/>
  <rect x="92" y="92" width="220" height="238" rx="28" fill="#FFFFFF" stroke="#BFDBFE" stroke-width="2"/>
  <rect x="124" y="126" width="120" height="12" rx="6" fill="#0F172A" opacity="0.88"/>
  <rect x="124" y="150" width="154" height="10" rx="5" fill="#93C5FD"/>
  <rect x="124" y="186" width="156" height="48" rx="18" fill="#EFF6FF" stroke="#BFDBFE" stroke-width="2"/>
  <rect x="142" y="205" width="92" height="10" rx="5" fill="#64748B"/>
  <rect x="124" y="252" width="156" height="48" rx="18" fill="#EFF6FF" stroke="#BFDBFE" stroke-width="2"/>
  <rect x="142" y="271" width="88" height="10" rx="5" fill="#64748B"/>
  <path d="M346 208H538" stroke="url(#transferAccent)" stroke-width="14" stroke-linecap="round"/>
  <circle cx="352" cy="208" r="22" fill="#0EA5E9"/>
  <circle cx="534" cy="208" r="22" fill="#22C55E"/>
  <rect x="418" y="120" width="172" height="66" rx="24" fill="#0F172A"/>
  <rect x="448" y="144" width="106" height="10" rx="5" fill="#DBEAFE"/>
  <rect x="400" y="240" width="204" height="94" rx="28" fill="#FFFFFF" stroke="#BFDBFE" stroke-width="2"/>
  <rect x="430" y="270" width="74" height="12" rx="6" fill="#0F172A" opacity="0.88"/>
  <rect x="430" y="294" width="112" height="10" rx="5" fill="#93C5FD"/>
  <path d="M520 282L536 298L564 266" stroke="#10B981" stroke-width="10" stroke-linecap="round" stroke-linejoin="round"/>
</svg>
